<svg xmlns="http://www.w3.org/2000/svg" viewBox="0 0 1260 750" width="1260" height="750"><style> svg{font-family:-apple-system,BlinkMacSystemFont,"SF Pro Text","Segoe UI",sans-serif} .room-shadow{fill:rgba(0,0,0,.38);filter:blur(16px)} .pill rect{fill:rgba(12,16,22,.82);stroke:rgba(255,255,255,.14)} .pill text{fill:#F2F5F8;font-size:14px;font-weight:700;letter-spacing:2.4px;text-anchor:middle} .metric{fill:#FFFFFF;font-size:26px;font-weight:300;text-anchor:middle;opacity:.92} .rug,.tiles,.lawn{opacity:.9} /* ---------- badges ---------- */ .badge{cursor:pointer} .badge-ring{fill:none;stroke:rgba(255,255,255,.55);stroke-width:1.5} .badge-core{fill:#2F6BFF} .badge-hub{fill:#fff} .badge:hover .badge-core{fill:#4B82FF} .badge:hover .badge-ring{stroke:#fff} /* ---------- lights ---------- */ .pool{fill:url(#poolg);opacity:0;transition:opacity .55s ease} .wallpool{fill:url(#poolg);opacity:0;filter:blur(5px);transition:opacity .55s ease} .fixture{fill:rgba(255,255,255,.28);transition:fill .4s,filter .4s} .light-on .pool,.pool.light-on{opacity:.95} .light-on .wallpool,.wallpool.light-on{opacity:1} .light-on.fixture,.fixture.light-on{fill:#FFEFC9;filter:drop-shadow(0 0 9px rgba(255,214,140,.95))} g[id^="light."]{cursor:pointer} /* LED strip */ .strip polygon{transition:fill .5s} .strip.light-on .f-t{fill:#FFE6B0;filter:drop-shadow(0 0 10px rgba(255,190,90,.9))} .strip.light-on .f-r{fill:#FFCE7A} .strip.light-on .f-l{fill:#F2B45E} /* bedside LED rings */ .ring ellipse{fill:none;stroke:rgba(255,255,255,.18);stroke-width:4;transition:stroke .5s} .ring.light-on ellipse{stroke:#FF7BC0;filter:drop-shadow(0 0 12px rgba(255,90,170,.9))} /* step lights */ .steplight .f-t,.steplight .f-r,.steplight .f-l{transition:fill .4s} .steplight.light-on .f-t{fill:#FFF0CE;filter:drop-shadow(0 0 8px rgba(255,214,140,.95))} /* ---------- AC ---------- */ .fan-ring{fill:none;stroke:rgba(120,140,160,.5);stroke-width:1.5} .fan-b{fill:rgba(140,160,180,.6);transition:fill .5s} .ac.ac-on .f-r,.ac.ac-on .f-t{fill:#DDF3FB} .fan.ac-running .fan-b,.ac-running .fan-b{fill:#6FC3DD} .fan.ac-running .fan-ring,.ac-running .fan-ring{stroke:#6FC3DD} .fan.ac-running,.ac-running .fan{animation:spin 1.3s linear infinite} @keyframes spin{to{transform:rotate(360deg)}} /* ---------- plugs / screens ---------- */ .bolt{fill:rgba(255,255,255,.30);transition:fill .4s,filter .4s} .plug-on .bolt,.bolt.plug-on{fill:#5CB884;filter:drop-shadow(0 0 8px rgba(92,184,132,.95))} .plug.plug-on .f-t{filter:drop-shadow(0 0 6px rgba(92,184,132,.5))} .screen{fill:#171C24;transition:fill .5s} .screen.on{fill:#4FA8E0;filter:drop-shadow(0 0 16px rgba(79,168,224,.8))} /* ---------- pump ---------- */ .pumpring{fill:none} .pumpring circle{fill:none;stroke:rgba(255,255,255,.18);stroke-width:2.5;transition:stroke .4s} .pumphub{fill:rgba(255,255,255,.35);transition:fill .4s} .pumpring.pump-on circle,.pump-on .pumpring circle{stroke:#E8A33D} .pumpring.pump-on,.pump-on .pumpring{animation:pulse 1.5s ease-in-out infinite} .pumphub.pump-on,.pump-on .pumphub{fill:#E8A33D;filter:drop-shadow(0 0 9px rgba(232,163,61,.95))} @keyframes pulse{0%,100%{transform:scale(1);opacity:1}50%{transform:scale(1.5);opacity:.25}} /* ---------- door ---------- */ .leaf-closed{fill:#9FB0C0;stroke:rgba(0,0,0,.2);stroke-width:1;transition:opacity .55s} .leaf-open{fill:#AEBECC;stroke:#E5484D;stroke-width:2;opacity:0;transition:opacity .55s} .door.door-open .leaf-closed{opacity:0} .door.door-open .leaf-open{opacity:1;filter:drop-shadow(0 0 9px rgba(229,72,77,.85))} /* ---------- motion ---------- */ .rip{fill:none;stroke:#E8A33D;stroke-width:2.5;opacity:0;transform-box:fill-box;transform-origin:center} .motion .f-t{transition:fill .4s} .motion-on .f-t{fill:#FFD98A} .motionfx.motion-on .rip{animation:rip 1.9s ease-out infinite} .motionfx.motion-on .rip.r2{animation-delay:.65s} @keyframes rip{0%{opacity:.9;transform:scale(.25)}100%{opacity:0;transform:scale(2.6)}} /* ---------- garden ---------- */ .spray{fill:#6FC3DD;opacity:0;transition:opacity .5s} .spray.valve-open{opacity:.7} .jets path{fill:none;stroke:#A8E4F5;stroke-width:3.2;stroke-linecap:round;opacity:0} .jets.valve-open path{opacity:.9;animation:jet 1.1s ease-out infinite} .jets.valve-open path:nth-child(2){animation-delay:.25s} .jets.valve-open path:nth-child(3){animation-delay:.5s} @keyframes jet{0%{opacity:0;transform:translateY(4px) scale(.6)}35%{opacity:.95}100%{opacity:0;transform:translateY(-6px) scale(1.15)}} .camlens{fill:#2B3946;transition:fill .4s} .cam-on .camlens,.camlens.cam-on{fill:#E5484D;filter:drop-shadow(0 0 7px rgba(229,72,77,.9))} @media (prefers-reduced-motion:reduce){ .ac-running .fan,.pump-on .pumpring,.motionfx.motion-on .rip,.jets.valve-open path{animation:none} } </style><defs><linearGradient id="bg" x1="0" y1="0" x2="0" y2="1"><stop offset="0%" stop-color="#101826"/><stop offset="55%" stop-color="#0C1119"/><stop offset="100%" stop-color="#080B10"/></linearGradient><radialGradient id="poolg"><stop offset="0%" stop-color="#FFF8E6" stop-opacity="1"/><stop offset="50%" stop-color="#FFD277" stop-opacity=".82"/><stop offset="100%" stop-color="#FFBE45" stop-opacity="0"/></radialGradient><radialGradient id="amb" cx="50%" cy="0%" r="80%"><stop offset="0%" stop-color="#2B7FB8" stop-opacity=".28"/><stop offset="100%" stop-color="#2B7FB8" stop-opacity="0"/></radialGradient></defs><rect width="1260" height="750" fill="url(#bg)"/><rect width="1260" height="750" fill="url(#amb)"/><text x="56" y="58" fill="#F2F5F8" font-size="27" font-weight="800" letter-spacing="7">MY HOME</text><text x="1204" y="58" fill="#5A6473" font-size="14" letter-spacing="3" text-anchor="end">sarthak.local</text><g class="room" transform="translate(190.0,195.0)"><ellipse class="room-shadow" cx="13.0" cy="89.0" rx="135.1" ry="63.0"/><polygon points="0.0,0.0 142.9,82.5 26.0,150.0 -116.9,67.5" fill="#5FC9B8"/><polygon points="0.0,0.0 142.9,82.5 142.9,4.5 0.0,-78.0" fill="#28A496"/><polygon points="0.0,0.0 -116.9,67.5 -116.9,-10.5 0.0,-78.0" fill="#1D766C"/><polygon points="0.0,-78.0 142.9,4.5 147.4,1.9 4.5,-80.6" fill="#32CAB8"/><polygon points="0.0,-78.0 -116.9,-10.5 -121.5,-13.1 -4.5,-80.6" fill="#2EBBAB"/><polygon points="142.9,82.5 147.4,79.9 147.4,1.9 142.9,4.5" fill="#21867A"/><polygon points="-116.9,67.5 -121.5,64.9 -121.5,-13.1 -116.9,-10.5" fill="#18635A"/><polygon points="142.9,82.5 26.0,150.0 26.0,156.8 142.9,89.2" fill="#449184"/><polygon points="-116.9,67.5 26.0,150.0 26.0,156.8 -116.9,74.2" fill="#346F65"/><ellipse class="pool" id="light.office_downlight_1-pool" cx="2.6" cy="46.5" rx="42.3" ry="24.4"/><ellipse class="pool" id="light.office_downlight_2-pool" cx="41.6" cy="87.0" rx="42.3" ry="24.4"/><ellipse class="pool" id="light.office_bathroom_downlight-pool" cx="46.8" cy="126.0" rx="27.6" ry="15.9"/><g><polygon class="f-l" points="-18.2,25.5 49.4,64.5 49.4,42.0 -18.2,3.0" fill="#969899"/><polygon class="f-r" points="74.0,50.2 49.4,64.5 49.4,42.0 74.0,27.8" fill="#C2C4C6"/><polygon class="f-t" points="6.5,-11.2 74.0,27.8 49.4,42.0 -18.2,3.0" fill="#F2F5F7"/></g><g><polygon class="f-l" points="-7.8,0.0 16.9,14.2 16.9,-4.5 -7.8,-18.8" fill="#909395"/><polygon class="f-r" points="31.2,6.0 16.9,14.2 16.9,-4.5 31.2,-12.8" fill="#BABEC1"/><polygon class="f-t" points="6.5,-27.0 31.2,-12.8 16.9,-4.5 -7.8,-18.8" fill="#E9EDF1"/></g><polygon class="screen" id="mon-screen" points="6.5,-26.2 46.8,-3.0 46.8,-26.2 6.5,-49.5"/><g id="light.smart_light_strip1" class="strip"><polygon class="f-l" points="-98.1,-5.6 -95.7,-4.3 -95.7,-8.5 -98.1,-9.8" fill="#9E9E9E"/><polygon class="f-r" points="-12.6,-52.3 -95.7,-4.3 -95.7,-8.5 -12.6,-56.5" fill="#CCCCCC"/><polygon class="f-t" points="-14.9,-57.8 -12.6,-56.5 -95.7,-8.5 -98.1,-9.8" fill="#FFFFFF"/></g><g id="mon-body"><polygon class="f-l" points="3.0,-23.5 47.2,2.0 47.2,-26.5 3.0,-52.0" fill="#1B2028"/><polygon class="f-r" points="50.0,0.4 47.2,2.0 47.2,-26.5 50.0,-28.1" fill="#232A33"/><polygon class="f-t" points="5.8,-53.6 50.0,-28.1 47.2,-26.5 3.0,-52.0" fill="#2C3440"/></g><g><polygon class="f-l" points="-46.8,40.5 -26.0,52.5 -26.0,44.2 -46.8,32.2" fill="#888D90"/><polygon class="f-r" points="-5.2,40.5 -26.0,52.5 -26.0,44.2 -5.2,32.2" fill="#B0B6BA"/><polygon class="f-t" points="-26.0,20.2 -5.2,32.2 -26.0,44.2 -46.8,32.2" fill="#DCE3E9"/></g><g><polygon class="f-l" points="-39.0,32.2 -24.7,40.5 -24.7,12.0 -39.0,3.8" fill="#363D45"/><polygon class="f-r" points="-10.4,32.2 -24.7,40.5 -24.7,12.0 -10.4,3.8" fill="#464E59"/><polygon class="f-t" points="-24.7,-4.5 -10.4,3.8 -24.7,12.0 -39.0,3.8" fill="#57626F"/></g><polygon class="rug" points="-44.2,43.2 28.6,85.2 -18.2,112.2 -90.9,70.2" fill="#49B4A4"/><g id="switch.office_main_desk" class="plug"><polygon class="f-l" points="58.5,65.2 75.3,75.0 75.3,39.0 58.5,29.2" fill="#383F48"/><polygon class="f-r" points="94.8,63.8 75.3,75.0 75.3,39.0 94.8,27.8" fill="#49525D"/><polygon class="f-t" points="77.9,18.0 94.8,27.8 75.3,39.0 58.5,29.2" fill="#5B6674"/></g><g><polygon class="f-l" points="-63.7,69.8 -37.7,84.8 -37.7,66.8 -63.7,51.8" fill="#8D9094"/><polygon class="f-r" points="-18.2,73.5 -37.7,84.8 -37.7,66.8 -18.2,55.5" fill="#B6BABE"/><polygon class="f-t" points="-44.2,40.5 -18.2,55.5 -37.7,66.8 -63.7,51.8" fill="#E4E9EE"/></g><g id="climate.panasonic_ac_panasonic_ac" class="ac"><polygon class="f-l" points="73.1,-1.7 117.3,23.8 117.3,7.3 73.1,-18.2" fill="#97999A"/><polygon class="f-r" points="124.4,19.6 117.3,23.8 117.3,7.3 124.4,3.1" fill="#C3C6C7"/><polygon class="f-t" points="80.3,-22.4 124.4,3.1 117.3,7.3 73.1,-18.2" fill="#F4F7F9"/></g><g id="switch.laptop_office" class="plug"><polygon class="f-l" points="-46.1,43.9 -24.0,56.6 -24.0,41.6 -46.1,28.9" fill="#1B2028"/><polygon class="f-r" points="-22.1,55.5 -24.0,56.6 -24.0,41.6 -22.1,40.5" fill="#232A33"/><polygon class="f-t" points="-44.2,27.8 -22.1,40.5 -24.0,41.6 -46.1,28.9" fill="#2C3440"/></g><polygon class="bolt" id="switch.office_main_desk-bolt" points="87.0,30.0 83.1,39.0 86.4,40.9 83.5,49.0 90.3,40.1 86.6,38.0"/><g id="switch.coffee_machine_switch" class="plug"><polygon class="f-l" points="90.9,81.0 105.2,89.2 105.2,65.2 90.9,57.0" fill="#424952"/><polygon class="f-r" points="120.8,80.2 105.2,89.2 105.2,65.2 120.8,56.2" fill="#565E6A"/><polygon class="f-t" points="106.5,48.0 120.8,56.2 105.2,65.2 90.9,57.0" fill="#6B7684"/></g><g><polygon class="f-l" points="5.2,138.0 8.4,139.9 8.4,88.9 5.2,87.0" fill="#18685F"/><polygon class="f-r" points="65.6,106.9 8.4,139.9 8.4,88.9 65.6,55.9" fill="#1E867A"/><polygon class="f-t" points="62.4,54.0 65.6,55.9 8.4,88.9 5.2,87.0" fill="#26A899"/></g><g><polygon class="f-l" points="-7.1,118.1 5.2,125.2 5.2,114.1 -7.1,107.1" fill="#73482E"/><polygon class="f-r" points="17.5,118.1 5.2,125.2 5.2,114.1 17.5,107.1" fill="#945D3B"/><polygon class="f-t" points="5.2,100.0 17.5,107.1 5.2,114.1 -7.1,107.1" fill="#B9744A"/></g><g class="leaf"><ellipse cx="5.2" cy="96.6" rx="9.5" ry="12.6" fill="#4CAF7D"/><ellipse cx="-4.3" cy="102.9" rx="7.4" ry="9.5" fill="#3E9066"/><ellipse cx="14.6" cy="101.8" rx="7.4" ry="9.5" fill="#46A173"/></g><g><polygon class="f-l" points="16.9,138.8 29.9,146.2 29.9,123.8 16.9,116.2" fill="#949799"/><polygon class="f-r" points="45.5,137.2 29.9,146.2 29.9,123.8 45.5,114.8" fill="#BFC2C5"/><polygon class="f-t" points="32.5,107.2 45.5,114.8 29.9,123.8 16.9,116.2" fill="#EFF3F6"/></g><g class="fan" id="climate.panasonic_ac_panasonic_ac-fan" style="transform-origin:102.6px -1.5px"><circle class="fan-ring" cx="102.6" cy="-1.5" r="9"/><path class="fan-b" d="M102.6 -1.5 q6 -3 0 -9 q-6 6 0 9z"/><path class="fan-b" d="M102.6 -1.5 q-6.5 -1.5 -7 6 q8 0.5 7 -6z"/><path class="fan-b" d="M102.6 -1.5 q6.5 -1.5 7 6 q-8 0.5 -7 -6z"/></g><circle id="light.office_downlight_1" class="fixture" cx="2.6" cy="-27.0" r="4.2"/><circle id="light.office_downlight_2" class="fixture" cx="41.6" cy="13.5" r="4.2"/><circle id="light.office_bathroom_downlight" class="fixture" cx="46.8" cy="52.5" r="3.6"/><text id="office-temp" class="metric" x="41.6" y="58.5">--</text></g><g class="room" transform="translate(610.0,195.0)"><ellipse class="room-shadow" cx="13.0" cy="89.0" rx="135.1" ry="63.0"/><polygon points="0.0,0.0 142.9,82.5 26.0,150.0 -116.9,67.5" fill="#B49BD8"/><polygon points="0.0,0.0 142.9,82.5 142.9,4.5 0.0,-78.0" fill="#A7386C"/><polygon points="0.0,0.0 -116.9,67.5 -116.9,-10.5 0.0,-78.0" fill="#78284E"/><polygon points="0.0,-78.0 142.9,4.5 147.4,1.9 4.5,-80.6" fill="#CE4586"/><polygon points="0.0,-78.0 -116.9,-10.5 -121.5,-13.1 -4.5,-80.6" fill="#BE407B"/><polygon points="142.9,82.5 147.4,79.9 147.4,1.9 142.9,4.5" fill="#882E58"/><polygon points="-116.9,67.5 -121.5,64.9 -121.5,-13.1 -116.9,-10.5" fill="#652242"/><polygon points="142.9,82.5 26.0,150.0 26.0,156.8 142.9,89.2" fill="#82709C"/><polygon points="-116.9,67.5 26.0,150.0 26.0,156.8 -116.9,74.2" fill="#635577"/><ellipse class="pool" id="light.bedroom_downlight_1-pool" cx="2.6" cy="37.5" rx="34.9" ry="20.2"/><ellipse class="pool" id="light.wiz_tunable_white_cdad76-pool" cx="70.1" cy="76.5" rx="34.9" ry="20.2"/><ellipse class="pool" id="light.wiz_tunable_white_cdadae-pool" cx="-52.0" cy="69.0" rx="34.9" ry="20.2"/><ellipse class="pool" id="light.wiz_tunable_white_9cde0f-pool" cx="15.6" cy="108.0" rx="34.9" ry="20.2"/><g><polygon class="f-l" points="-87.7,58.9 -81.2,62.6 -81.2,23.6 -87.7,19.9" fill="#581E3C"/><polygon class="f-r" points="8.4,10.9 -81.2,62.6 -81.2,23.6 8.4,-28.1" fill="#72274D"/><polygon class="f-t" points="1.9,-31.9 8.4,-28.1 -81.2,23.6 -87.7,19.9" fill="#8E3160"/></g><g><polygon class="f-l" points="-80.5,58.5 -10.4,99.0 -10.4,83.2 -80.5,42.8" fill="#97989A"/><polygon class="f-r" points="70.1,52.5 -10.4,99.0 -10.4,83.2 70.1,36.8" fill="#C2C4C6"/><polygon class="f-t" points="0.0,-3.8 70.1,36.8 -10.4,83.2 -80.5,42.8" fill="#F3F5F8"/></g><g><polygon class="f-l" points="-19.5,7.5 50.7,48.0 50.7,40.5 -19.5,-0.0" fill="#9E9E9E"/><polygon class="f-r" points="70.1,36.8 50.7,48.0 50.7,40.5 70.1,29.2" fill="#CCCCCC"/><polygon class="f-t" points="0.0,-11.2 70.1,29.2 50.7,40.5 -19.5,-0.0" fill="#FFFFFF"/></g><g><polygon class="f-l" points="-80.5,42.8 -10.4,83.2 -10.4,78.0 -80.5,37.5" fill="#903D59"/><polygon class="f-r" points="50.7,48.0 -10.4,83.2 -10.4,78.0 50.7,42.8" fill="#BA4E72"/><polygon class="f-t" points="-19.5,2.2 50.7,42.8 -10.4,78.0 -80.5,37.5" fill="#E8628F"/></g><g><polygon class="f-l" points="57.2,66.0 76.6,77.2 76.6,57.8 57.2,46.5" fill="#959698"/><polygon class="f-r" points="96.1,66.0 76.6,77.2 76.6,57.8 96.1,46.5" fill="#C0C2C4"/><polygon class="f-t" points="76.6,35.2 96.1,46.5 76.6,57.8 57.2,46.5" fill="#F0F2F5"/></g><g id="switch.tuya_wall_socket_socket_1" class="plug"><polygon class="f-l" points="66.3,45.8 77.3,52.1 77.3,44.6 66.3,38.2" fill="#903D59"/><polygon class="f-r" points="88.3,45.8 77.3,52.1 77.3,44.6 88.3,38.2" fill="#BA4E72"/><polygon class="f-t" points="77.3,31.9 88.3,38.2 77.3,44.6 66.3,38.2" fill="#E8628F"/></g><polygon class="rug" points="0.0,65.7 67.5,104.7 20.8,131.7 -46.8,92.7" fill="#A98CCF"/><g><polygon class="f-l" points="62.4,103.5 74.0,110.3 74.0,99.8 62.4,93.0" fill="#73482E"/><polygon class="f-r" points="85.7,103.5 74.0,110.3 74.0,99.8 85.7,93.0" fill="#945D3B"/><polygon class="f-t" points="74.0,86.2 85.7,93.0 74.0,99.8 62.4,93.0" fill="#B9744A"/></g><g><polygon class="f-l" points="-16.9,108.8 2.6,120.0 2.6,100.5 -16.9,89.2" fill="#959698"/><polygon class="f-r" points="22.1,108.8 2.6,120.0 2.6,100.5 22.1,89.2" fill="#C0C2C4"/><polygon class="f-t" points="2.6,78.0 22.1,89.2 2.6,100.5 -16.9,89.2" fill="#F0F2F5"/></g><g class="leaf"><ellipse cx="74.0" cy="83.0" rx="9.0" ry="12.0" fill="#4CAF7D"/><ellipse cx="65.0" cy="89.0" rx="7.0" ry="9.0" fill="#3E9066"/><ellipse cx="83.0" cy="88.0" rx="7.0" ry="9.0" fill="#46A173"/></g><g id="switch.tuya_wall_socket_socket_2" class="plug"><polygon class="f-l" points="-7.8,88.5 3.2,94.9 3.2,87.4 -7.8,81.0" fill="#903D59"/><polygon class="f-r" points="14.3,88.5 3.2,94.9 3.2,87.4 14.3,81.0" fill="#BA4E72"/><polygon class="f-t" points="3.2,74.6 14.3,81.0 3.2,87.4 -7.8,81.0" fill="#E8628F"/></g><g id="light.master_bedroom_led_outer" class="ring"><ellipse cx="-45.5" cy="-24.8" rx="46" ry="26"/></g><g id="light.master_bedroom_led_inner" class="ring"><ellipse cx="-45.5" cy="-24.8" rx="28" ry="16"/></g><circle id="light.bedroom_downlight_1" class="fixture" cx="2.6" cy="-36.0" r="4.0"/><circle id="light.wiz_tunable_white_cdad76" class="fixture" cx="70.1" cy="3.0" r="4.0"/><circle id="light.wiz_tunable_white_cdadae" class="fixture" cx="-52.0" cy="-4.5" r="4.0"/><circle id="light.wiz_tunable_white_9cde0f" class="fixture" cx="15.6" cy="34.5" r="4.0"/></g><g class="room" transform="translate(1030.0,195.0)"><ellipse class="room-shadow" cx="13.0" cy="89.0" rx="135.1" ry="63.0"/><polygon points="0.0,0.0 142.9,82.5 26.0,150.0 -116.9,67.5" fill="#C9B994"/><polygon points="0.0,0.0 142.9,82.5 142.9,4.5 0.0,-78.0" fill="#5F905B"/><polygon points="0.0,0.0 -116.9,67.5 -116.9,-10.5 0.0,-78.0" fill="#456842"/><polygon points="0.0,-78.0 142.9,4.5 147.4,1.9 4.5,-80.6" fill="#76B270"/><polygon points="0.0,-78.0 -116.9,-10.5 -121.5,-13.1 -4.5,-80.6" fill="#6DA568"/><polygon points="142.9,82.5 147.4,79.9 147.4,1.9 142.9,4.5" fill="#4E764A"/><polygon points="-116.9,67.5 -121.5,64.9 -121.5,-13.1 -116.9,-10.5" fill="#3A5737"/><polygon points="142.9,82.5 26.0,150.0 26.0,156.8 142.9,89.2" fill="#91856B"/><polygon points="-116.9,67.5 26.0,150.0 26.0,156.8 -116.9,74.2" fill="#6F6651"/><g><polygon class="f-l" points="0.0,30.0 72.7,72.0 72.7,54.0 0.0,12.0" fill="#73583A"/><polygon class="f-r" points="90.9,61.5 72.7,72.0 72.7,54.0 90.9,43.5" fill="#94724B"/><polygon class="f-t" points="18.2,1.5 90.9,43.5 72.7,54.0 0.0,12.0" fill="#B98E5E"/></g><polygon class="screen" id="media_player.samsung_7_series_50_ua50nu7470" points="28.6,-19.5 96.1,19.5 96.1,-19.5 28.6,-58.5"/><g id="tv-body"><polygon class="f-l" points="21.4,-15.4 94.2,26.6 94.2,-18.4 21.4,-60.4" fill="#161A20"/><polygon class="f-r" points="98.1,24.4 94.2,26.6 94.2,-18.4 98.1,-20.6" fill="#1C222A"/><polygon class="f-t" points="25.3,-62.6 98.1,-20.6 94.2,-18.4 21.4,-60.4" fill="#232A34"/></g><g id="media_player.jio_set_top_box" class="plug"><polygon class="f-l" points="15.6,18.0 36.4,30.0 36.4,24.7 15.6,12.8" fill="#232931"/><polygon class="f-r" points="48.1,23.2 36.4,30.0 36.4,24.7 48.1,18.0" fill="#2E353F"/><polygon class="f-t" points="27.3,6.0 48.1,18.0 36.4,24.7 15.6,12.8" fill="#39424F"/></g><polygon class="rug" points="-5.2,47.7 72.7,92.7 18.2,124.2 -59.8,79.2" fill="#B8A67E"/><g><polygon class="f-l" points="-88.3,75.0 -7.8,121.5 -7.8,108.0 -88.3,61.5" fill="#3A5976"/><polygon class="f-r" points="20.8,105.0 -7.8,121.5 -7.8,108.0 20.8,91.5" fill="#4B7299"/><polygon class="f-t" points="-59.8,45.0 20.8,91.5 -7.8,108.0 -88.3,61.5" fill="#5E8FBF"/></g><g><polygon class="f-l" points="-92.2,59.3 -84.4,63.8 -84.4,51.0 -92.2,46.5" fill="#45627E"/><polygon class="f-r" points="-55.9,47.2 -84.4,63.8 -84.4,51.0 -55.9,34.5" fill="#597EA2"/><polygon class="f-t" points="-63.7,30.0 -55.9,34.5 -84.4,51.0 -92.2,46.5" fill="#6F9ECB"/></g><g><polygon class="f-l" points="-33.8,73.5 0.0,93.0 0.0,81.8 -33.8,62.2" fill="#867D67"/><polygon class="f-r" points="23.4,79.5 0.0,93.0 0.0,81.8 23.4,68.3" fill="#ADA185"/><polygon class="f-t" points="-10.4,48.8 23.4,68.3 0.0,81.8 -33.8,62.2" fill="#D8C9A6"/></g><g><polygon class="f-l" points="-88.3,61.5 -7.8,108.0 -7.8,88.5 -88.3,42.0" fill="#45627E"/><polygon class="f-r" points="2.6,102.0 -7.8,108.0 -7.8,88.5 2.6,82.5" fill="#597EA2"/><polygon class="f-t" points="-77.9,36.0 2.6,82.5 -7.8,88.5 -88.3,42.0" fill="#6F9ECB"/></g><g id="siren.hub" class="plug"><polygon class="f-l" points="93.5,84.0 106.5,91.5 106.5,61.5 93.5,54.0" fill="#242A33"/><polygon class="f-r" points="119.5,84.0 106.5,91.5 106.5,61.5 119.5,54.0" fill="#2E3642"/><polygon class="f-t" points="106.5,46.5 119.5,54.0 106.5,61.5 93.5,54.0" fill="#3A4453"/></g><g><polygon class="f-l" points="-11.7,105.8 -3.9,110.2 -3.9,97.5 -11.7,93.0" fill="#45627E"/><polygon class="f-r" points="24.7,93.8 -3.9,110.2 -3.9,97.5 24.7,81.0" fill="#597EA2"/><polygon class="f-t" points="16.9,76.5 24.7,81.0 -3.9,97.5 -11.7,93.0" fill="#6F9ECB"/></g><g><polygon class="f-l" points="20.3,126.3 33.8,134.0 33.8,121.9 20.3,114.2" fill="#73482E"/><polygon class="f-r" points="47.2,126.3 33.8,134.0 33.8,121.9 47.2,114.2" fill="#945D3B"/><polygon class="f-t" points="33.8,106.4 47.2,114.2 33.8,121.9 20.3,114.2" fill="#B9744A"/></g><g class="leaf"><ellipse cx="33.8" cy="102.7" rx="10.3" ry="13.8" fill="#4CAF7D"/><ellipse cx="23.4" cy="109.6" rx="8.0" ry="10.3" fill="#3E9066"/><ellipse cx="44.1" cy="108.4" rx="8.0" ry="10.3" fill="#46A173"/></g></g><g class="room" transform="translate(190.0,545.0)"><ellipse class="room-shadow" cx="13.0" cy="89.0" rx="135.1" ry="63.0"/><polygon points="0.0,0.0 142.9,82.5 26.0,150.0 -116.9,67.5" fill="#E0A92F"/><polygon points="0.0,0.0 142.9,82.5 142.9,4.5 0.0,-78.0" fill="#C17730"/><polygon points="0.0,0.0 -116.9,67.5 -116.9,-10.5 0.0,-78.0" fill="#8B5623"/><polygon points="0.0,-78.0 142.9,4.5 147.4,1.9 4.5,-80.6" fill="#ED923B"/><polygon points="0.0,-78.0 -116.9,-10.5 -121.5,-13.1 -4.5,-80.6" fill="#DC8737"/><polygon points="142.9,82.5 147.4,79.9 147.4,1.9 142.9,4.5" fill="#9D6127"/><polygon points="-116.9,67.5 -121.5,64.9 -121.5,-13.1 -116.9,-10.5" fill="#74481D"/><polygon points="142.9,82.5 26.0,150.0 26.0,156.8 142.9,89.2" fill="#A17A22"/><polygon points="-116.9,67.5 26.0,150.0 26.0,156.8 -116.9,74.2" fill="#7B5D1A"/><ellipse class="wallpool" id="light.st1-pool" cx="-31.8" cy="3.4" rx="34" ry="20"/><ellipse class="wallpool" id="light.st2-pool" cx="-56.5" cy="-0.4" rx="34" ry="20"/><ellipse class="wallpool" id="light.st3-pool" cx="-81.2" cy="-4.1" rx="34" ry="20"/><g><polygon class="f-l" points="-59.8,49.5 -43.5,58.9 -43.5,50.6 -59.8,41.2" fill="#959799"/><polygon class="f-r" points="16.2,24.4 -43.5,58.9 -43.5,50.6 16.2,16.1" fill="#C0C2C5"/><polygon class="f-t" points="0.0,6.8 16.2,16.1 -43.5,50.6 -59.8,41.2" fill="#F0F3F6"/></g><g><polygon class="f-l" points="-43.5,58.9 -27.3,68.2 -27.3,51.8 -43.5,42.4" fill="#959799"/><polygon class="f-r" points="32.5,33.8 -27.3,68.2 -27.3,51.8 32.5,17.2" fill="#C0C2C5"/><polygon class="f-t" points="16.2,7.9 32.5,17.2 -27.3,51.8 -43.5,42.4" fill="#F0F3F6"/></g><g><polygon class="f-l" points="-27.3,68.2 -11.0,77.6 -11.0,52.9 -27.3,43.5" fill="#959799"/><polygon class="f-r" points="48.7,43.1 -11.0,77.6 -11.0,52.9 48.7,18.4" fill="#C0C2C5"/><polygon class="f-t" points="32.5,9.0 48.7,18.4 -11.0,52.9 -27.3,43.5" fill="#F0F3F6"/></g><g><polygon class="f-l" points="-11.0,77.6 5.2,87.0 5.2,54.0 -11.0,44.6" fill="#959799"/><polygon class="f-r" points="65.0,52.5 5.2,87.0 5.2,54.0 65.0,19.5" fill="#C0C2C5"/><polygon class="f-t" points="48.7,10.1 65.0,19.5 5.2,54.0 -11.0,44.6" fill="#F0F3F6"/></g><g><polygon class="f-l" points="5.2,87.0 21.4,96.4 21.4,55.1 5.2,45.8" fill="#959799"/><polygon class="f-r" points="81.2,61.9 21.4,96.4 21.4,55.1 81.2,20.6" fill="#C0C2C5"/><polygon class="f-t" points="65.0,11.2 81.2,20.6 21.4,55.1 5.2,45.8" fill="#F0F3F6"/></g><g><polygon class="f-l" points="21.4,96.4 37.7,105.8 37.7,56.2 21.4,46.9" fill="#959799"/><polygon class="f-r" points="97.4,71.2 37.7,105.8 37.7,56.2 97.4,21.8" fill="#C0C2C5"/><polygon class="f-t" points="81.2,12.4 97.4,21.8 37.7,56.2 21.4,46.9" fill="#F0F3F6"/></g><g id="switch.borewell_motor" class="pump"><polygon class="f-l" points="3.9,123.8 28.6,138.0 28.6,115.5 3.9,101.2" fill="#383F48"/><polygon class="f-r" points="53.3,123.8 28.6,138.0 28.6,115.5 53.3,101.2" fill="#49525D"/><polygon class="f-t" points="28.6,87.0 53.3,101.2 28.6,115.5 3.9,101.2" fill="#5B6674"/></g><g id="light.st1" class="steplight"><polygon class="f-l" points="-42.1,8.7 -39.5,10.2 -39.5,4.2 -42.1,2.7" fill="#9E9E9E"/><polygon class="f-r" points="-25.2,1.9 -39.5,10.2 -39.5,4.2 -25.2,-4.1" fill="#CCCCCC"/><polygon class="f-t" points="-27.8,-5.5 -25.2,-4.1 -39.5,4.2 -42.1,2.7" fill="#FFFFFF"/></g><g id="light.st2" class="steplight"><polygon class="f-l" points="-66.8,4.9 -64.2,6.4 -64.2,0.5 -66.8,-1.1" fill="#9E9E9E"/><polygon class="f-r" points="-49.9,-1.8 -64.2,6.4 -64.2,0.5 -49.9,-7.8" fill="#CCCCCC"/><polygon class="f-t" points="-52.5,-9.3 -49.9,-7.8 -64.2,0.5 -66.8,-1.1" fill="#FFFFFF"/></g><g id="light.st3" class="steplight"><polygon class="f-l" points="-91.5,1.2 -88.9,2.7 -88.9,-3.3 -91.5,-4.8" fill="#9E9E9E"/><polygon class="f-r" points="-74.6,-5.6 -88.9,2.7 -88.9,-3.3 -74.6,-11.6" fill="#CCCCCC"/><polygon class="f-t" points="-77.2,-13.1 -74.6,-11.6 -88.9,-3.3 -91.5,-4.8" fill="#FFFFFF"/></g><g class="pumpring" id="switch.borewell_motor-ring" style="transform-origin:28.6px 101.2px"><circle cx="28.6" cy="101.2" r="17"/></g><circle class="pumphub" id="switch.borewell_motor-hub" cx="28.6" cy="101.2" r="6"/></g><g class="room" transform="translate(610.0,545.0)"><ellipse class="room-shadow" cx="13.0" cy="89.0" rx="135.1" ry="63.0"/><polygon points="0.0,0.0 142.9,82.5 26.0,150.0 -116.9,67.5" fill="#5F6E7E"/><polygon points="0.0,0.0 142.9,82.5 142.9,4.5 0.0,-78.0" fill="#3585B8"/><polygon points="0.0,0.0 -116.9,67.5 -116.9,-10.5 0.0,-78.0" fill="#266085"/><polygon points="0.0,-78.0 142.9,4.5 147.4,1.9 4.5,-80.6" fill="#42A4E3"/><polygon points="0.0,-78.0 -116.9,-10.5 -121.5,-13.1 -4.5,-80.6" fill="#3D98D2"/><polygon points="142.9,82.5 147.4,79.9 147.4,1.9 142.9,4.5" fill="#2B6C96"/><polygon points="-116.9,67.5 -121.5,64.9 -121.5,-13.1 -116.9,-10.5" fill="#20516F"/><polygon points="142.9,82.5 26.0,150.0 26.0,156.8 142.9,89.2" fill="#444F5B"/><polygon points="-116.9,67.5 26.0,150.0 26.0,156.8 -116.9,74.2" fill="#343D45"/><polygon class="tiles" points="0.0,8.6 127.3,82.0 26.0,140.6 -101.3,67.0" fill="#6C7B8C"/><g><polygon class="f-l" points="25.5,21.3 30.0,23.9 30.0,-39.1 25.5,-41.7" fill="#1B232B"/><polygon class="f-r" points="36.5,20.2 30.0,23.9 30.0,-39.1 36.5,-42.8" fill="#222E38"/><polygon class="f-t" points="32.0,-45.5 36.5,-42.8 30.0,-39.1 25.5,-41.7" fill="#2B3946"/></g><g><polygon class="f-l" points="75.3,90.0 87.0,96.8 87.0,86.2 75.3,79.5" fill="#783A24"/><polygon class="f-r" points="98.7,90.0 87.0,96.8 87.0,86.2 98.7,79.5" fill="#9B4B2E"/><polygon class="f-t" points="87.0,72.8 98.7,79.5 87.0,86.2 75.3,79.5" fill="#C25E3A"/></g><g class="leaf"><ellipse cx="87.0" cy="69.5" rx="9.0" ry="12.0" fill="#4CAF7D"/><ellipse cx="78.0" cy="75.5" rx="7.0" ry="9.0" fill="#3E9066"/><ellipse cx="96.0" cy="74.5" rx="7.0" ry="9.0" fill="#46A173"/></g><g><polygon class="f-l" points="12.0,104.1 26.0,112.2 26.0,99.6 12.0,91.5" fill="#783A24"/><polygon class="f-r" points="40.0,104.1 26.0,112.2 26.0,99.6 40.0,91.5" fill="#9B4B2E"/><polygon class="f-t" points="26.0,83.4 40.0,91.5 26.0,99.6 12.0,91.5" fill="#C25E3A"/></g><g class="leaf"><ellipse cx="26.0" cy="79.5" rx="10.8" ry="14.4" fill="#4CAF7D"/><ellipse cx="15.2" cy="86.7" rx="8.4" ry="10.8" fill="#3E9066"/><ellipse cx="36.8" cy="85.5" rx="8.4" ry="10.8" fill="#46A173"/></g><g><polygon class="f-l" points="-102.8,74.3 -100.7,75.5 -100.7,53.0 -102.8,51.8" fill="#565E66"/><polygon class="f-r" points="-98.6,74.3 -100.7,75.5 -100.7,53.0 -98.6,51.8" fill="#6E7984"/><polygon class="f-t" points="-100.7,50.6 -98.6,51.8 -100.7,53.0 -102.8,51.8" fill="#8A97A5"/></g><g><polygon class="f-l" points="-83.9,85.2 -81.8,86.4 -81.8,63.9 -83.9,62.7" fill="#565E66"/><polygon class="f-r" points="-79.8,85.2 -81.8,86.4 -81.8,63.9 -79.8,62.7" fill="#6E7984"/><polygon class="f-t" points="-81.8,61.5 -79.8,62.7 -81.8,63.9 -83.9,62.7" fill="#8A97A5"/></g><g><polygon class="f-l" points="-65.1,96.1 -63.0,97.3 -63.0,74.8 -65.1,73.6" fill="#565E66"/><polygon class="f-r" points="-60.9,96.1 -63.0,97.3 -63.0,74.8 -60.9,73.6" fill="#6E7984"/><polygon class="f-t" points="-63.0,72.4 -60.9,73.6 -63.0,74.8 -65.1,73.6" fill="#8A97A5"/></g><g><polygon class="f-l" points="-46.2,107.0 -44.2,108.2 -44.2,85.7 -46.2,84.5" fill="#565E66"/><polygon class="f-r" points="-42.1,107.0 -44.2,108.2 -44.2,85.7 -42.1,84.5" fill="#6E7984"/><polygon class="f-t" points="-44.2,83.2 -42.1,84.5 -44.2,85.7 -46.2,84.5" fill="#8A97A5"/></g><g><polygon class="f-l" points="-27.4,117.8 -25.3,119.0 -25.3,96.5 -27.4,95.3" fill="#565E66"/><polygon class="f-r" points="-23.3,117.8 -25.3,119.0 -25.3,96.5 -23.3,95.3" fill="#6E7984"/><polygon class="f-t" points="-25.3,94.1 -23.3,95.3 -25.3,96.5 -27.4,95.3" fill="#8A97A5"/></g><g><polygon class="f-l" points="-8.6,128.7 -6.5,129.9 -6.5,107.4 -8.6,106.2" fill="#565E66"/><polygon class="f-r" points="-4.4,128.7 -6.5,129.9 -6.5,107.4 -4.4,106.2" fill="#6E7984"/><polygon class="f-t" points="-6.5,105.0 -4.4,106.2 -6.5,107.4 -8.6,106.2" fill="#8A97A5"/></g><g><polygon class="f-l" points="10.3,139.6 12.3,140.8 12.3,118.3 10.3,117.1" fill="#565E66"/><polygon class="f-r" points="14.4,139.6 12.3,140.8 12.3,118.3 14.4,117.1" fill="#6E7984"/><polygon class="f-t" points="12.3,115.9 14.4,117.1 12.3,118.3 10.3,117.1" fill="#8A97A5"/></g><g><polygon class="f-l" points="-104.4,51.3 17.7,121.8 17.7,119.1 -104.4,48.6" fill="#636B73"/><polygon class="f-r" points="20.5,120.2 17.7,121.8 17.7,119.1 20.5,117.5" fill="#7F8A95"/><polygon class="f-t" points="-101.6,47.0 20.5,117.5 17.7,119.1 -104.4,48.6" fill="#9FACBA"/></g><g id="binary_sensor.terrace_door_sensor_door" class="door"><polygon class="leaf-closed" points="33.0,20.0 72.0,42.4 72.0,-17.6 33.0,-40.0"/><polygon class="leaf-open" points="33.0,20.0 -5.2,42.0 -5.2,-18.0 33.0,-40.0"/></g><g id="binary_sensor.motion_sensor_motion" class="motion"><polygon class="f-l" points="-87.6,-5.6 -83.7,-3.3 -83.7,-12.3 -87.6,-14.5" fill="#9E9E9E"/><polygon class="f-r" points="-73.3,-9.3 -83.7,-3.3 -83.7,-12.3 -73.3,-18.3" fill="#CCCCCC"/><polygon class="f-t" points="-77.2,-20.5 -73.3,-18.3 -83.7,-12.3 -87.6,-14.5" fill="#FFFFFF"/></g><g id="motion-fx" class="motionfx"><circle class="rip r1" cx="-76.6" cy="-2.2" r="12"/><circle class="rip r2" cx="-76.6" cy="-2.2" r="12"/></g></g><g class="room" transform="translate(1030.0,545.0)"><ellipse class="room-shadow" cx="13.0" cy="89.0" rx="135.1" ry="63.0"/><polygon points="0.0,0.0 142.9,82.5 26.0,150.0 -116.9,67.5" fill="#4FAE72"/><polygon points="0.0,0.0 142.9,82.5 142.9,4.5 0.0,-78.0" fill="#449769"/><polygon points="0.0,0.0 -116.9,67.5 -116.9,-10.5 0.0,-78.0" fill="#316D4C"/><polygon points="0.0,-78.0 142.9,4.5 147.4,1.9 4.5,-80.6" fill="#54BB81"/><polygon points="0.0,-78.0 -116.9,-10.5 -121.5,-13.1 -4.5,-80.6" fill="#4DAC78"/><polygon points="142.9,82.5 147.4,79.9 147.4,1.9 142.9,4.5" fill="#377B55"/><polygon points="-116.9,67.5 -121.5,64.9 -121.5,-13.1 -116.9,-10.5" fill="#295C3F"/><polygon points="142.9,82.5 26.0,150.0 26.0,156.8 142.9,89.2" fill="#397D52"/><polygon points="-116.9,67.5 26.0,150.0 26.0,156.8 -116.9,74.2" fill="#2B603F"/><ellipse class="spray" id="valve.tuya_automated_watering_valve_1-spray" cx="2.6" cy="52.2" rx="47.8" ry="27.6"/><ellipse class="spray" id="valve.tuya_automated_watering_valve_2-spray" cx="18.2" cy="97.2" rx="47.8" ry="27.6"/><g><polygon class="f-l" points="-11.7,12.8 120.8,89.2 120.8,72.8 -11.7,-3.7" fill="#265F40"/><polygon class="f-r" points="132.5,82.5 120.8,89.2 120.8,72.8 132.5,66.0" fill="#327B52"/><polygon class="f-t" points="0.0,-10.5 132.5,66.0 120.8,72.8 -11.7,-3.7" fill="#3E9A67"/></g><polygon class="lawn" points="0.0,7.0 129.9,82.0 26.0,142.1 -103.9,67.0" fill="#46A468"/><g><polygon class="f-l" points="-106.5,67.5 -94.8,74.2 -94.8,57.8 -106.5,51.0" fill="#265F40"/><polygon class="f-r" points="0.0,19.5 -94.8,74.2 -94.8,57.8 0.0,3.0" fill="#327B52"/><polygon class="f-t" points="-11.7,-3.7 0.0,3.0 -94.8,57.8 -106.5,51.0" fill="#3E9A67"/></g><g><polygon class="f-l" points="-80.2,76.3 -65.0,85.0 -65.0,71.4 -80.2,62.6" fill="#6D3C24"/><polygon class="f-r" points="-49.8,76.3 -65.0,85.0 -65.0,71.4 -49.8,62.6" fill="#8D4D2E"/><polygon class="f-t" points="-65.0,53.9 -49.8,62.6 -65.0,71.4 -80.2,62.6" fill="#B0603A"/></g><g class="leaf"><ellipse cx="-65.0" cy="49.6" rx="11.7" ry="15.6" fill="#3FA86B"/><ellipse cx="-76.7" cy="57.4" rx="9.1" ry="11.7" fill="#348A58"/><ellipse cx="-53.3" cy="56.1" rx="9.1" ry="11.7" fill="#3A9B62"/></g><g><polygon class="f-l" points="102.0,85.1 106.5,87.8 106.5,33.8 102.0,31.1" fill="#2E383F"/><polygon class="f-r" points="111.1,85.1 106.5,87.8 106.5,33.8 111.1,31.1" fill="#3B4852"/><polygon class="f-t" points="106.5,28.5 111.1,31.1 106.5,33.8 102.0,31.1" fill="#4A5A66"/></g><g id="camera.hikvision_ds_2cd1043g0_i_mainstream" class="cam"><polygon class="f-l" points="93.5,30.0 109.1,39.0 109.1,28.5 93.5,19.5" fill="#888D90"/><polygon class="f-r" points="120.8,32.2 109.1,39.0 109.1,28.5 120.8,21.7" fill="#B0B6BA"/><polygon class="f-t" points="105.2,12.7 120.8,21.7 109.1,28.5 93.5,19.5" fill="#DCE3E9"/></g><g><polygon class="f-l" points="-2.5,127.4 10.4,134.8 10.4,123.3 -2.5,115.9" fill="#6D3C24"/><polygon class="f-r" points="23.3,127.4 10.4,134.8 10.4,123.3 23.3,115.9" fill="#8D4D2E"/><polygon class="f-t" points="10.4,108.5 23.3,115.9 10.4,123.3 -2.5,115.9" fill="#B0603A"/></g><g class="leaf"><ellipse cx="10.4" cy="104.9" rx="9.9" ry="13.2" fill="#46B575"/><ellipse cx="0.5" cy="111.5" rx="7.7" ry="9.9" fill="#399460"/><ellipse cx="20.3" cy="110.4" rx="7.7" ry="9.9" fill="#40A76C"/></g><g id="valve.tuya_automated_watering_valve_1" class="valve"><polygon class="f-l" points="-9.1,56.2 2.6,63.0 2.6,51.0 -9.1,44.2" fill="#223542"/><polygon class="f-r" points="14.3,56.2 2.6,63.0 2.6,51.0 14.3,44.2" fill="#2C4556"/><polygon class="f-t" points="2.6,37.5 14.3,44.2 2.6,51.0 -9.1,44.2" fill="#37566B"/></g><g id="valve.tuya_automated_watering_valve_2" class="valve"><polygon class="f-l" points="6.5,101.2 18.2,108.0 18.2,96.0 6.5,89.2" fill="#223542"/><polygon class="f-r" points="29.9,101.2 18.2,108.0 18.2,96.0 29.9,89.2" fill="#2C4556"/><polygon class="f-t" points="18.2,82.5 29.9,89.2 18.2,96.0 6.5,89.2" fill="#37566B"/></g><g class="jets" id="valve.tuya_automated_watering_valve_1-jets"><path d="M2.6 44.2 q14 -16 30 -6"/><path d="M2.6 44.2 q-14 -16 -30 -6"/><path d="M2.6 44.2 q2 -20 4 -22"/></g><g class="jets" id="valve.tuya_automated_watering_valve_2-jets"><path d="M18.2 89.2 q14 -16 30 -6"/><path d="M18.2 89.2 q-14 -16 -30 -6"/><path d="M18.2 89.2 q2 -20 4 -22"/></g><circle class="camlens" id="camera.hikvision_ds_2cd1043g0_i_mainstream-lens" cx="99.4" cy="21.4" r="4.5"/></g><g class="pill"><rect x="129.9" y="329.3" width="75.2" height="30" rx="15"/><text x="167.5" y="349.8">OFFICE</text></g><g class="pill"><rect x="545.3" y="329.3" width="84.4" height="30" rx="15"/><text x="587.5" y="349.8">BEDROOM</text></g><g class="pill"><rect x="946.9" y="329.3" width="121.2" height="30" rx="15"/><text x="1007.5" y="349.8">LIVING ROOM</text></g><g class="pill"><rect x="116.1" y="679.3" width="102.8" height="30" rx="15"/><text x="167.5" y="699.8">STAIRCASE</text></g><g class="pill"><rect x="545.3" y="679.3" width="84.4" height="30" rx="15"/><text x="587.5" y="699.8">TERRACE</text></g><g class="pill"><rect x="969.9" y="679.3" width="75.2" height="30" rx="15"/><text x="1007.5" y="699.8">GARDEN</text></g></svg>